# This file uses meters as units for non-parametric coordinates.

mtllib Road system.mtl
g default
v 1145.985671 3.714209 2379.354320
v 1194.014811 3.714209 2379.354320
v 1145.985671 3.714209 -1661.101851
v 1194.014811 3.714209 -1661.101851
v 1145.931778 3.714209 527.509667
v 1145.931778 3.714209 479.480527
v -2592.382382 3.714209 527.509667
v -2592.382382 3.714209 479.480527
v -639.190122 3.714209 1105.221726
v -591.160982 3.714209 1105.221726
v -639.190122 3.714209 -590.363509
v -591.160982 3.714209 -590.363509
v -187.685412 3.715458 -661.822839
v -143.166067 3.715458 -679.845896
v -1189.946246 3.715458 -939.140155
v -1189.718390 3.715458 -987.168758
v -221.650400 3.715458 -699.753143
v -177.852760 3.715458 -719.465354
v -258.017130 3.715458 -740.286713
v -217.117440 3.715458 -765.466359
v -296.906188 3.715458 -786.385063
v -261.730196 3.715458 -819.087572
v -339.476568 3.715458 -831.795699
v -307.260748 3.715458 -867.417885
v -388.082565 3.715458 -878.933068
v -363.569444 3.715458 -920.235690
v -461.176502 3.715458 -921.176134
v -444.064332 3.715458 -966.053673
v -539.207656 3.715458 -938.894027
v -527.545149 3.715458 -985.485631
v -602.776082 3.715458 -943.244100
v -603.091457 3.715458 -991.272012
v -672.105402 3.715458 -942.788695
v -672.420854 3.715458 -990.816990
v -742.729540 3.715458 -942.324845
v -743.044992 3.715458 -990.352987
v -806.496189 3.715458 -941.905829
v -806.811641 3.715458 -989.934201
v -879.715416 3.715458 -941.424782
v -880.030791 3.715458 -989.453001
v -962.220551 3.715458 -940.882856
v -962.536080 3.715458 -988.910998
v -1034.633530 3.715458 -940.407183
v -1034.949135 3.715458 -988.435478
v -1095.492479 3.715458 -940.007590
v -1095.807701 3.715458 -988.035655
v -1146.531809 3.715458 -939.672562
v -1146.847260 3.715458 -987.700627
v -1168.514942 3.715458 -939.338761
v -1168.829933 3.715458 -987.366904
v -105.558124 3.715458 -638.222103
v -166.736594 3.715458 -638.109288
v 757.930661 3.714209 -213.643089
v 757.930661 3.714209 -261.672258
v -3187.958582 3.714209 -213.643089
v -3187.958582 3.714209 -261.672258
v 1146.040562 3.714209 158.040082
v 1146.040562 3.714209 110.010903
v 279.885041 3.714209 158.040082
v 279.885041 3.714209 110.010903
v -1237.697629 3.714209 2222.445842
v -1189.668489 3.714209 2222.445842
v -1237.697629 3.714209 -1611.361333
v -1189.668489 3.714209 -1611.361333
v 2604.343615 3.714209 1153.191829
v 2604.343615 3.714209 1105.162689
v -1189.731134 3.714209 1153.191829
v -1189.731134 3.714209 1105.162689
v 3206.875571 3.714209 -590.349998
v 3206.875571 3.714209 -638.379138
v -639.175650 3.714209 -590.349998
v -639.175650 3.714209 -638.379138
v 231.894440 3.714209 479.544401
v 279.923619 3.714209 479.544401
v 231.894440 3.714209 -213.688912
v 279.923619 3.714209 -213.688912
vt 0.030067 -8.796803
vt 0.238803 -8.796572
vt 0.010646 8.763327
vt 0.219384 8.763554
vt 0.015871 8.256239
vt 0.225751 8.256294
vt 0.020353 -8.079735
vt 0.230231 -8.079674
vt 0.230987 -3.807082
vt 0.019837 -3.807113
vt 0.229891 3.647317
vt 0.018740 3.647288
vt 0.022109 2.792254
vt 0.216723 2.611422
vt 0.228995 2.376757
vt 0.020435 2.375836
vt 0.018743 2.107734
vt 0.227302 2.108372
vt 0.229212 -2.526865
vt 0.020671 -2.524035
vt 0.019059 1.845473
vt 0.227615 1.846122
vt 0.019272 1.586180
vt 0.227821 1.584247
vt 0.018384 1.310848
vt 0.226945 1.311506
vt 0.020673 1.006291
vt 0.229230 1.007134
vt 0.020358 0.675516
vt 0.228916 0.674363
vt 0.020322 0.324387
vt 0.228876 0.325597
vt 0.020170 0.023386
vt 0.228729 0.022916
vt 0.020778 -0.277673
vt 0.229339 -0.278144
vt 0.020087 -0.584358
vt 0.228648 -0.584828
vt 0.020753 -0.861264
vt 0.229311 -0.861733
vt 0.020037 -1.179215
vt 0.228597 -1.179683
vt 0.020518 -1.537491
vt 0.229079 -1.537960
vt 0.021100 -1.851943
vt 0.229660 -1.852413
vt 0.020504 -2.116221
vt 0.229065 -2.116692
vt 0.020006 -2.337859
vt 0.228564 -2.338330
vt 0.020611 -2.433325
vt 0.229170 -2.433798
vt 0.037288 8.505133
vt 0.244525 8.504723
vt 0.003835 -8.520498
vt 0.211071 -8.520893
vt 0.025661 1.729725
vt 0.232251 1.729271
vt 0.017497 -1.995896
vt 0.224084 -1.996350
vt 0.240121 -7.090192
vt 0.028532 -7.090481
vt 0.217042 9.799597
vt 0.005447 9.799303
vt 0.033150 7.753270
vt 0.241471 7.753020
vt 0.011962 -7.563432
vt 0.220285 -7.563675
vt 0.003676 8.472925
vt 0.214036 8.473310
vt 0.034337 -8.371887
vt 0.244691 -8.371508
vt 0.229492 -1.638321
vt 0.018727 -1.638347
vt 0.229112 1.403780
vt 0.018354 1.403750
vn 0.000000 1.000000 0.000000
vn 0.000000 1.000000 0.000000
vn 0.000000 1.000000 0.000000
vn 0.000000 1.000000 0.000000
vn 0.000000 1.000000 0.000000
vn 0.000000 1.000000 0.000000
vn 0.000000 1.000000 0.000000
vn 0.000000 1.000000 0.000000
vn 0.000000 1.000000 0.000000
vn 0.000000 1.000000 0.000000
vn 0.000000 1.000000 0.000000
vn 0.000000 1.000000 0.000000
vn 0.000000 1.000000 0.000000
vn 0.000000 1.000000 0.000000
vn 0.000000 1.000000 -0.000004
vn 0.000000 1.000000 -0.000006
vn 0.000000 1.000000 -0.000005
vn 0.000000 1.000000 -0.000004
vn 0.000000 1.000000 0.000000
vn 0.000000 1.000000 0.000000
vn 0.000000 1.000000 -0.000008
vn 0.000000 1.000000 -0.000007
vn 0.000000 1.000000 -0.000006
vn 0.000000 1.000000 -0.000007
vn 0.000000 1.000000 -0.000006
vn 0.000000 1.000000 -0.000006
vn 0.000000 1.000000 -0.000007
vn 0.000000 1.000000 -0.000007
vn 0.000000 1.000000 0.000000
vn 0.000000 1.000000 0.000000
vn 0.000000 1.000000 0.000000
vn 0.000000 1.000000 0.000000
vn 0.000000 1.000000 0.000000
vn 0.000000 1.000000 0.000000
vn 0.000000 1.000000 0.000000
vn 0.000000 1.000000 0.000000
vn 0.000000 1.000000 0.000000
vn 0.000000 1.000000 0.000000
vn 0.000000 1.000000 0.000007
vn 0.000000 1.000000 0.000007
vn 0.000000 1.000000 0.000016
vn 0.000000 1.000000 0.000016
vn 0.000000 1.000000 0.000009
vn 0.000000 1.000000 0.000009
vn 0.000000 1.000000 0.000000
vn 0.000000 1.000000 0.000000
vn 0.000000 1.000000 0.000000
vn 0.000000 1.000000 0.000000
vn 0.000000 1.000000 0.000000
vn 0.000000 1.000000 0.000000
vn 0.000000 1.000000 -0.000013
vn 0.000000 1.000000 -0.000013
vn 0.000000 1.000000 -0.000013
vn 0.000000 1.000000 -0.000013
vn 0.000000 1.000000 0.000000
vn 0.000000 1.000000 0.000000
vn 0.000000 1.000000 0.000000
vn 0.000000 1.000000 0.000000
vn 0.000000 1.000000 0.000000
vn 0.000000 1.000000 0.000000
vn 0.000000 1.000000 0.000000
vn 0.000000 1.000000 0.000000
vn 0.000000 1.000000 0.000000
vn 0.000000 1.000000 0.000000
vn 0.000000 1.000000 0.000000
vn 0.000000 1.000000 0.000000
vn 0.000000 1.000000 0.000000
vn 0.000000 1.000000 0.000000
vn 0.000000 1.000000 0.000000
vn 0.000000 1.000000 0.000000
vn 0.000000 1.000000 0.000000
vn 0.000000 1.000000 0.000000
vn 0.000000 1.000000 0.000000
vn 0.000000 1.000000 0.000000
vn 0.000000 1.000000 0.000000
vn 0.000000 1.000000 0.000000
vn 0.000000 1.000000 0.000000
vn 0.000000 1.000000 0.000000
s off
g pCube11
usemtl initialShadingGroup
f 1/1/1 2/2/2 4/4/3 3/3/4
f 5/6/5 6/5/6 8/7/7 7/8/8
f 9/10/9 10/9/10 12/11/11 11/12/12
s 1
f 13/15/13 14/16/14 18/17/15 17/18/16
f 17/18/16 18/17/15 20/21/17 19/22/18
f 19/22/18 20/21/17 22/23/19 21/24/20
f 21/24/20 22/23/19 24/25/21 23/26/22
f 23/26/22 24/25/21 26/27/23 25/28/24
f 25/28/24 26/27/23 28/29/25 27/30/26
f 27/30/26 28/29/25 30/31/27 29/32/28
f 29/32/28 30/31/27 32/33/29 31/34/30
f 31/34/30 32/33/29 34/35/31 33/36/32
f 33/36/32 34/35/31 36/37/33 35/38/34
f 35/38/34 36/37/33 38/39/35 37/40/36
f 37/40/36 38/39/35 40/41/37 39/42/38
f 39/42/38 40/41/37 42/43/39 41/44/40
f 41/44/40 42/43/39 44/45/41 43/46/42
f 43/46/42 44/45/41 46/47/43 45/48/44
f 45/48/44 46/47/43 48/49/45 47/50/46
f 47/50/46 48/49/45 50/51/47 49/52/48
f 49/52/48 50/51/47 16/20/49 15/19/50
s off
f 14/16/51 13/15/52 52/14/53 51/13/54
f 53/54/55 54/53/56 56/55/57 55/56/58
f 57/58/59 58/57/60 60/59/61 59/60/62
f 61/62/63 62/61/64 64/63/65 63/64/66
f 65/66/67 66/65/68 68/67/69 67/68/70
f 69/70/71 70/69/72 72/71/73 71/72/74
f 73/74/75 74/73/76 76/75/77 75/76/78
